<?xml version="1.0" standalone="no"?>
<!DOCTYPE svg PUBLIC "-//W3C//DTD SVG 20010904//EN"
 "http://www.w3.org/TR/2001/REC-SVG-20010904/DTD/svg10.dtd">
<svg version="1.0" xmlns="http://www.w3.org/2000/svg"
 width="363.000000pt" height="363.000000pt" viewBox="0 0 363.000000 363.000000"
 preserveAspectRatio="xMidYMid meet">
<metadata>
Created by potrace 1.14, written by Peter Selinger 2001-2017
</metadata>
<g transform="translate(0.000000,363.000000) scale(0.100000,-0.100000)"
fill="#000000" stroke="none">
<path d="M0 1815 l0 -1815 1815 0 1815 0 0 1815 0 1815 -1815 0 -1815 0 0
-1815z m2250 965 l0 -170 110 0 109 0 3 -112 3 -113 108 -3 107 -3 0 -279 0
-280 110 0 110 0 0 -225 0 -225 -110 0 -110 0 0 -225 0 -225 -220 0 -220 0 0
110 0 110 -110 0 -110 0 0 -110 0 -110 -215 0 -215 0 0 110 0 110 -110 0 -110
0 0 -110 0 -110 -220 0 -220 0 0 225 0 225 -110 0 -110 0 0 225 0 225 110 0
110 0 0 280 0 279 108 3 107 3 3 113 3 112 109 0 110 0 0 170 0 170 435 0 435
0 0 -170z"/>
<path d="M1270 1880 l0 -170 55 0 55 0 0 55 0 55 110 0 110 0 0 115 0 115
-165 0 -165 0 0 -170z"/>
<path d="M2037 2043 c-4 -3 -7 -80 -7 -170 l0 -163 55 0 55 0 0 55 0 55 110 0
110 0 0 115 0 115 -158 0 c-87 0 -162 -3 -165 -7z"/>
</g>
</svg>
